#!OML:ASF H:\Terrain\Patient Classification 1\Walking\liu\liu.ASF
:FULLY-SPECIFIED
:DEGREES
205
root 9.21505 16.8173 8.20978 9.39255 4.18693 4.36696
lowerback -4.50091 -3.69976 -5.257
upperback 0.145286 -4.69999 1.57595
thorax 3.22951 -2.44202 4.21479
lowerneck -21.1447 -3.03797 -11.7141
upperneck 18.0113 -3.0643 11.2957
head 9.53491 -0.973056 5.49364
rclavicle 1.2424e-014 9.54166e-015
rhumerus -47.1901 14.5441 -83.6246
rradius 29.7066
rwrist -15.7336
rhand -12.9367 -35.3059
rfingers 7.12502
rthumb 13.1542 -64.8709
lclavicle 1.2424e-014 9.54166e-015
lhumerus -15.9724 -30.6741 88.7678
lradius 36.4212
lwrist 12.5189
lhand -18.3896 -28.5985
lfingers 7.12502
lthumb 7.89436 1.23409
rfemur -43.7491 2.30178 14.7512
rtibia 37.5602
rfoot -20.4512 -8.82467
rtoes -17.5748
lfemur 3.53908 -2.1769 -29.4378
ltibia 9.28908
lfoot -17.5458 0.752674
ltoes 4.63233
206
root 9.21416 16.7872 8.45151 9.57161 4.42405 4.68804
lowerback -4.69134 -3.90068 -5.61913
upperback 0.193672 -4.93632 1.54698
thorax 3.44301 -2.57202 4.34988
lowerneck -21.2911 -3.00177 -11.8666
upperneck 17.9566 -2.98084 11.4541
head 9.53643 -0.923332 5.58939
rclavicle -2.99171e-014 1.59028e-015
rhumerus -48.3365 14.2754 -82.9124
rradius 29.6856
rwrist -16.0632
rhand -21.2165 -26.6565
rfingers 7.12502
rthumb 5.16531 -56.5735
lclavicle -2.99171e-014 1.59028e-015
lhumerus -13.6892 -31.787 87.5522
lradius 36.7314
lwrist 12.8156
lhand -18.6098 -28.8642
lfingers 7.12502
lthumb 7.68183 0.976305
rfemur -44.7277 3.4569 13.4049
rtibia 35.5611
rfoot -21.0581 -9.03518
rtoes -16.9059
lfemur 7.59978 -2.04752 -29.666
ltibia 2.93776
lfoot -15.1803 0.453945
ltoes 6.31324
207
root 9.2265 16.7533 8.69079 9.88763 4.53803 5.35459
lowerback -5.06677 -4.06908 -6.20104
upperback 0.232444 -5.09719 1.36553
thorax 3.74935 -2.66923 4.44152
lowerneck -20.4346 -2.78324 -12.289
upperneck 16.9377 -2.73856 12.2118
head 9.01687 -0.773914 5.92687
rclavicle -1.81888e-014 6.36111e-015
rhumerus -49.5005 13.9455 -82.1077
rradius 29.9674
rwrist -16.7636
rhand -27.1613 -21.23
rfingers 7.12502
rthumb -0.575894 -51.209
lclavicle -1.81888e-014 6.36111e-015
lhumerus -11.4551 -32.3356 86.3626
lradius 37.0496
lwrist 12.5756
lhand -18.5583 -28.8871
lfingers 7.12502
lthumb 7.73148 0.951544
rfemur -45.9492 4.57359 11.4857
rtibia 33.7959
rfoot -21.5692 -9.45393
rtoes -17.1436
lfemur 9.79884 -1.86862 -30.3282
ltibia 2.8625e-014
lfoot -14.4734 0.279506
ltoes 5.89248
208
root 9.23225 16.7164 8.93529 10.1462 4.70577 6.03931
lowerback -5.37408 -4.27045 -6.83095
upperback 0.229571 -5.2974 1.15785
thorax 3.98354 -2.7845 4.53153
lowerneck -20.7594 -2.80259 -11.8452
upperneck 17.3406 -2.79884 11.7721
head 9.20795 -0.812518 5.70028
rclavicle 1.13407e-013 1.90833e-014
rhumerus -50.3393 12.9112 -80.8109
rradius 29.591
rwrist -16.4062
rhand -28.9265 -19.4722
rfingers 7.12502
rthumb -2.28075 -49.4397
lclavicle 1.13407e-013 1.90833e-014
lhumerus -9.44307 -32.5904 85.1946
lradius 37.37
lwrist 12.3652
lhand -18.365 -28.9267
lfingers 7.12502
lthumb 7.91807 0.904984
rfemur -47.068 6.05145 9.2147
rtibia 32.2695
rfoot -22.4691 -10.3679
rtoes -20.9374
lfemur 10.5202 -1.73949 -30.9686
ltibia 3.81667e-014
lfoot -14.9231 0.0484097
ltoes 5.05709
209
root 9.22452 16.6794 9.17659 10.4282 4.98342 6.41061
lowerback -5.51212 -4.50255 -7.26552
upperback 0.10315 -5.5685 1.07952
thorax 3.99967 -2.92344 4.65488
lowerneck -20.7703 -2.7191 -11.604
upperneck 17.5399 -2.73229 11.5962
head 9.26319 -0.784722 5.61127
rclavicle 1.55052e-014 -7.95139e-016
rhumerus -51.3424 11.9148 -79.4903
rradius 28.9517
rwrist -15.2947
rhand -28.8113 -17.905
rfingers 7.12502
rthumb -2.16948 -47.8737
lclavicle 1.55052e-014 -7.95139e-016
lhumerus -7.63607 -33.1136 84.0381
lradius 37.6476
lwrist 12.6594
lhand -18.447 -29.0827
lfingers 7.12502
lthumb 7.83892 0.752011
rfemur -48.1709 7.84001 7.02826
rtibia 30.9051
rfoot -24.17 -10.7681
rtoes -21.8126
lfemur 11.1431 -1.68901 -31.141
ltibia -5.08889e-014
lfoot -15.0575 -0.35686
ltoes 5.70408
210
root 9.22066 16.6416 9.41914 10.4401 5.4287 6.46438
lowerback -5.32795 -4.73474 -7.32943
upperback 0.00850067 -5.89126 1.07667
thorax 3.8481 -3.07775 4.66843
lowerneck -20.8386 -2.65706 -11.3851
upperneck 17.7588 -2.69912 11.4887
head 9.34188 -0.765141 5.54776
rclavicle -1.86858e-014 -4.37326e-015
rhumerus -52.6846 11.6254 -78.6322
rradius 28.6608
rwrist -14.7886
rhand -29.5203 -17.5771
rfingers 7.12502
rthumb -2.85416 -47.5378
lclavicle -1.86858e-014 -4.37326e-015
lhumerus -5.98931 -33.37 82.9879
lradius 37.8501
lwrist 12.4214
lhand -18.4249 -29.1175
lfingers 7.12502
lthumb 7.86022 0.716405
rfemur -48.9881 9.86743 4.95112
rtibia 29.7159
rfoot -27.0727 -10.5427
rtoes -26.0075
lfemur 12.0592 -1.70597 -30.9255
ltibia -6.36111e-015
lfoot -15.1984 -0.891635
ltoes 6.51021
211
root 9.22507 16.6232 9.6725 10.2155 5.86097 6.38752
lowerback -5.14575 -4.96674 -7.20153
upperback 0.13728 -6.22071 1.10957
thorax 3.9167 -3.24557 4.60216
lowerneck -20.8681 -2.54883 -11.4052
upperneck 17.6094 -2.57029 11.6743
head 9.28172 -0.684637 5.63188
rclavicle -3.67752e-015 -1.90833e-014
rhumerus -53.5596 11.3786 -77.5611
rradius 28.7495
rwrist -14.9393
rhand -30.1252 -21.5027
rfingers 7.12502
rthumb -3.43833 -51.4547
lclavicle -3.67752e-015 -1.90833e-014
lhumerus -4.24304 -32.7692 82.0147
lradius 38.0331
lwrist 11.7333
lhand -18.0856 -29.1341
lfingers 7.12502
lthumb 8.1877 0.687241
rfemur -49.4839 11.7528 3.12676
rtibia 28.6823
rfoot -26.2536 -12.8617
rtoes -21.5544
lfemur 13.2104 -1.64317 -30.6421
ltibia -4.13472e-014
lfoot -15.3281 -1.21102
ltoes 4.67117
212
root 9.21861 16.5771 9.93347 10.2257 6.22234 6.43439
lowerback -5.31516 -5.27154 -7.37621
upperback 0.303607 -6.60318 1.22546
thorax 4.27406 -3.45635 4.74846
lowerneck -21.1309 -2.39892 -11.4276
upperneck 17.4986 -2.33368 11.7429
head 9.26052 -0.560658 5.69267
rclavicle -7.65321e-014 -7.55382e-015
rhumerus -53.9149 10.693 -75.8785
rradius 28.6793
rwrist -14.3795
rhand -30.1712 -24.7504
rfingers 7.12502
rthumb -3.48282 -54.7017
lclavicle -7.65321e-014 -7.55382e-015
lhumerus -2.49617 -31.8085 81.1582
lradius 38.2978
lwrist 11.4204
lhand -17.9464 -29.1492
lfingers 7.12502
lthumb 8.32206 0.666892
rfemur -50.3177 13.2658 1.3944
rtibia 27.9887
rfoot -26.2066 -14.3882
rtoes -19.0506
lfemur 14.1807 -1.58264 -30.4513
ltibia 9.54166e-015
lfoot -15.442 -1.52249
ltoes 1.32357
213
root 9.2091 16.5194 10.1889 10.3597 6.46983 6.74112
lowerback -5.4433 -5.45573 -7.77522
upperback 0.419846 -6.80915 1.22361
thorax 4.54614 -3.5793 4.9208
lowerneck -21.8983 -2.42251 -11.0973
upperneck 17.9164 -2.30919 11.2522
head 9.52933 -0.563043 5.48534
rclavicle -2.96189e-014 -1.59028e-015
rhumerus -54.3101 9.53666 -73.9796
rradius 28.335
rwrist -13.1371
rhand -29.8715 -24.7231
rfingers 7.12502
rthumb -3.19337 -54.6789
lclavicle -2.96189e-014 -1.59028e-015
lhumerus -0.771589 -31.3144 80.3263
lradius 38.6661
lwrist 11.8311
lhand -17.3665 -28.9576
lfingers 7.12502
lthumb 8.88164 0.835501
rfemur -51.2239 14.0106 -0.0274802
rtibia 27.7534
rfoot -27.2251 -14.7458
rtoes -17.9726
lfemur 15.092 -1.48586 -30.4735
ltibia 6.36111e-015
lfoot -15.5642 -2.09583
ltoes -0.566925
214
root 9.20542 16.461 10.442 10.3569 6.63342 6.96504
lowerback -5.31475 -5.53323 -7.8958
upperback 0.451532 -6.9093 1.10137
thorax 4.52126 -3.62996 4.85665
lowerneck -22.2989 -2.47298 -10.7283
upperneck 18.2053 -2.38371 10.838
head 9.70168 -0.610024 5.27508
rclavicle -2.66371e-014 1.03368e-014
rhumerus -54.9513 8.29964 -72.2299
rradius 27.9469
rwrist -12.0292
rhand -29.7131 -24.4276
rfingers 7.12502
rthumb -3.04036 -54.3857
lclavicle -2.66371e-014 1.03368e-014
lhumerus 0.585786 -31.3807 79.36
lradius 39.2411
lwrist 12.8401
lhand -16.3647 -28.7997
lfingers 7.12502
lthumb 9.84828 0.949988
rfemur -51.6995 13.5828 -0.235599
rtibia 27.848
rfoot -27.6096 -14.0272
rtoes -17.8685
lfemur 16.0959 -1.27656 -30.4155
ltibia 2.8625e-014
lfoot -15.6723 -2.60856
ltoes -1.46014
215
root 9.20006 16.37 10.6998 10.2764 6.68071 6.94195
lowerback -5.00973 -5.69001 -7.84151
upperback 0.253498 -7.15474 1.1217
thorax 4.17338 -3.73429 4.85848
lowerneck -21.6857 -2.26778 -10.8001
upperneck 17.9865 -2.15328 10.9696
head 9.48834 -0.5069 5.35297
rclavicle 1.03567e-013 -1.59028e-015
rhumerus -55.8399 7.69134 -70.676
rradius 27.5871
rwrist -11.269
rhand -31.0165 -23.33
rfingers 7.12502
rthumb -4.29911 -53.2664
lclavicle 1.03567e-013 -1.59028e-015
lhumerus 1.08962 -30.8563 78.9158
lradius 39.6412
lwrist 12.996
lhand -16.4536 -28.8352
lfingers 7.12502
lthumb 9.76252 0.918515
rfemur -52.0199 12.3281 0.740982
rtibia 28.2062
rfoot -26.6795 -12.7869
rtoes -18.1585
lfemur 17.2213 -0.919231 -30.0692
ltibia 6.04305e-014
lfoot -15.6565 -3.48053
ltoes 0.0854225
